<svg width="36" height="36" viewBox="0 0 36 36" fill="none" xmlns="http://www.w3.org/2000/svg">
<rect width="36" height="36" rx="18" fill="#F7E4E4"/>
<g clip-path="url(#clip0_3238_4947)">
<path fill-rule="evenodd" clip-rule="evenodd" d="M9 18.5C9 13.2533 13.2533 9 18.5 9C23.7467 9 28 13.2533 28 18.5C28 23.7467 23.7467 28 18.5 28C13.2533 28 9 23.7467 9 18.5ZM19.1333 13.9083C19.1333 13.5585 18.8498 13.275 18.5 13.275C18.1502 13.275 17.8667 13.5585 17.8667 13.9083V18.5C17.8667 18.668 17.9334 18.829 18.0522 18.9478L20.9022 21.7978C21.1495 22.0452 21.5505 22.0452 21.7978 21.7978C22.0452 21.5505 22.0452 21.1495 21.7978 20.9022L19.1333 18.2377V13.9083Z" fill="#D37874"/>
</g>
<defs>
<clipPath id="clip0_3238_4947">
<rect width="19" height="19" fill="white" transform="translate(9 9)"/>
</clipPath>
</defs>
</svg>
