<svg width="36" height="36" viewBox="0 0 36 36" fill="none" xmlns="http://www.w3.org/2000/svg">
<rect width="36" height="36" rx="18" fill="#F7E4E4"/>
<path d="M20.5 19.832H21.75V22.182L23.7833 23.357L23.1583 24.4404L20.5 22.907V19.832ZM23.8333 15.6654H12.1667V24.832H16.0583C15.7 24.0737 15.5 23.2237 15.5 22.332C15.5 20.7849 16.1146 19.3012 17.2085 18.2072C18.3025 17.1133 19.7862 16.4987 21.3333 16.4987C22.225 16.4987 23.075 16.6987 23.8333 17.057V15.6654ZM12.1667 26.4987C11.7246 26.4987 11.3007 26.3231 10.9882 26.0105C10.6756 25.698 10.5 25.2741 10.5 24.832V13.1654C10.5 12.2404 11.2417 11.4987 12.1667 11.4987H13V9.83203H14.6667V11.4987H21.3333V9.83203H23V11.4987H23.8333C24.2754 11.4987 24.6993 11.6743 25.0118 11.9869C25.3244 12.2994 25.5 12.7233 25.5 13.1654V18.2487C26.5333 19.2987 27.1667 20.7404 27.1667 22.332C27.1667 23.8791 26.5521 25.3629 25.4581 26.4568C24.3642 27.5508 22.8804 28.1654 21.3333 28.1654C19.7417 28.1654 18.3 27.532 17.25 26.4987H12.1667ZM21.3333 18.2904C20.2614 18.2904 19.2334 18.7162 18.4754 19.4741C17.7175 20.2321 17.2917 21.2601 17.2917 22.332C17.2917 24.5654 19.1 26.3737 21.3333 26.3737C21.8641 26.3737 22.3897 26.2692 22.88 26.066C23.3704 25.8629 23.8159 25.5652 24.1912 25.1899C24.5665 24.8146 24.8642 24.3691 25.0673 23.8787C25.2705 23.3884 25.375 22.8628 25.375 22.332C25.375 20.0987 23.5667 18.2904 21.3333 18.2904Z" fill="#D37874"/>
</svg>
