<svg width="1920" height="300" viewBox="0 0 1920 300" fill="none" xmlns="http://www.w3.org/2000/svg">
<g clip-path="url(#clip0_3342_716)">
<rect width="1920" height="300" fill="#B6211A"/>
<path d="M254.152 281.156L253.397 280.311L214.723 314.862L168.201 262.788L206.029 228.992L253.307 281.911L254.152 281.156L254.998 280.401L206.965 226.636C206.766 226.414 206.482 226.276 206.185 226.261C205.887 226.243 205.587 226.348 205.364 226.546L165.845 261.852C165.623 262.051 165.486 262.336 165.469 262.636C165.453 262.932 165.556 263.231 165.755 263.453L213.788 317.217C213.986 317.44 214.272 317.576 214.569 317.594C214.869 317.611 215.166 317.506 215.388 317.307L254.907 282.001C255.13 281.803 255.268 281.519 255.284 281.22C255.301 280.92 255.196 280.623 254.998 280.401L254.152 281.156Z" fill="#E1A3A0"/>
<path d="M213.866 230.778L214.641 230.086L261.163 282.16L223.334 315.956L222.465 314.982C222.048 314.516 221.331 314.475 220.864 314.892C220.398 315.309 220.358 316.026 220.774 316.492L222.399 318.311C222.598 318.533 222.884 318.671 223.181 318.688C223.48 318.705 223.777 318.6 224 318.401L263.519 283.095C263.741 282.896 263.879 282.613 263.896 282.313C263.912 282.017 263.807 281.717 263.609 281.495L215.576 227.73C215.376 227.506 215.091 227.37 214.794 227.353C214.495 227.336 214.198 227.441 213.976 227.64L212.356 229.087C211.889 229.504 211.847 230.22 212.265 230.688C212.682 231.154 213.399 231.195 213.866 230.778Z" fill="#E1A3A0"/>
<path d="M200.613 264.394L199.857 263.549L186.985 275.049L176.519 263.335L188.547 252.59L199.767 265.149L200.613 264.394L201.459 263.638L189.484 250.233C189.285 250.011 189 249.874 188.702 249.859C188.404 249.841 188.106 249.944 187.882 250.144L174.164 262.4C173.942 262.598 173.805 262.883 173.788 263.183C173.772 263.479 173.875 263.778 174.074 264L186.05 277.405C186.248 277.627 186.533 277.763 186.831 277.782C187.129 277.797 187.428 277.693 187.65 277.495L201.368 265.239C201.592 265.04 201.728 264.754 201.745 264.458C201.761 264.159 201.658 263.86 201.459 263.638L200.613 264.394Z" fill="#E1A3A0"/>
<path d="M194.316 247.893L205.467 237.931C205.933 237.515 205.974 236.797 205.557 236.331C205.139 235.863 204.423 235.824 203.956 236.241L192.806 246.203C192.339 246.62 192.297 247.335 192.716 247.803C193.132 248.27 193.85 248.31 194.316 247.893Z" fill="#E1A3A0"/>
<path d="M198.677 252.776L209.828 242.814C210.294 242.397 210.335 241.68 209.918 241.214C209.5 240.746 208.784 240.707 208.318 241.124L197.167 251.086C196.701 251.502 196.659 252.218 197.077 252.686C197.494 253.152 198.211 253.193 198.677 252.776Z" fill="#E1A3A0"/>
<path d="M196.271 286.01L224.96 260.38C225.427 259.963 225.467 259.246 225.05 258.779C224.632 258.311 223.917 258.272 223.45 258.689L194.761 284.32C194.294 284.737 194.253 285.452 194.671 285.92C195.087 286.387 195.805 286.427 196.271 286.01Z" fill="#E1A3A0"/>
<path d="M201.255 291.589L229.945 265.958C230.411 265.541 230.452 264.824 230.035 264.357C229.618 263.891 228.901 263.851 228.434 264.267L199.745 289.898C199.279 290.315 199.238 291.032 199.655 291.499C200.072 291.965 200.789 292.005 201.255 291.589Z" fill="#E1A3A0"/>
<path d="M206.236 297.167L234.925 271.536C235.392 271.119 235.432 270.402 235.015 269.936C234.597 269.467 233.881 269.429 233.415 269.845L204.726 295.476C204.259 295.893 204.217 296.609 204.635 297.077C205.052 297.543 205.769 297.583 206.236 297.167Z" fill="#E1A3A0"/>
<path d="M1833.15 30.1559L1832.4 29.3107L1793.72 63.8618L1747.2 11.7878L1785.03 -22.0082L1832.31 30.911L1833.15 30.1559L1834 29.4008L1785.96 -24.3637C1785.77 -24.5859 1785.48 -24.7238 1785.18 -24.7391C1784.89 -24.7573 1784.59 -24.6524 1784.36 -24.4538L1744.85 10.8525C1744.62 11.051 1744.49 11.3362 1744.47 11.6355C1744.45 11.9319 1744.56 12.2306 1744.76 12.4529L1792.79 66.2173C1792.99 66.4395 1793.27 66.576 1793.57 66.5942C1793.87 66.6111 1794.17 66.5059 1794.39 66.3074L1833.91 31.0011C1834.13 30.8025 1834.27 30.519 1834.28 30.2196C1834.3 29.9203 1834.2 29.623 1834 29.4008L1833.15 30.1559Z" fill="#E1A3A0"/>
<path d="M1792.87 -20.2222L1793.64 -20.9144L1840.16 31.1595L1802.33 64.9556L1801.46 63.982C1801.05 63.5155 1800.33 63.4751 1799.86 63.8919C1799.4 64.3086 1799.36 65.0258 1799.77 65.4922L1801.4 67.311C1801.6 67.5333 1801.88 67.6713 1802.18 67.688C1802.48 67.7049 1802.78 67.5997 1803 67.4011L1842.52 32.0949C1842.74 31.8963 1842.88 31.6127 1842.9 31.3134C1842.91 31.017 1842.81 30.7168 1842.61 30.4945L1794.58 -23.2699C1794.38 -23.4937 1794.09 -23.6302 1793.79 -23.6469C1793.5 -23.6638 1793.2 -23.5586 1792.98 -23.36L1791.36 -21.9127C1790.89 -21.496 1790.85 -20.7803 1791.27 -20.3123C1791.68 -19.8459 1792.4 -19.8055 1792.87 -20.2222Z" fill="#E1A3A0"/>
<path d="M1779.61 13.3943L1778.86 12.549L1765.99 24.0493L1755.52 12.335L1767.55 1.58993L1778.77 14.1494L1779.61 13.3943L1780.46 12.6378L1768.48 -0.766961C1768.29 -0.989225 1768 -1.12568 1767.7 -1.14097C1767.4 -1.15922 1767.11 -1.05565 1766.88 -0.855684L1753.16 11.3997C1752.94 11.5983 1752.81 11.8834 1752.79 12.1827C1752.77 12.4791 1752.88 12.7778 1753.07 13.0001L1765.05 26.4048C1765.25 26.627 1765.53 26.7635 1765.83 26.7817C1766.13 26.797 1766.43 26.6935 1766.65 26.4949L1780.37 14.2395C1780.59 14.0395 1780.73 13.7544 1780.74 13.458C1780.76 13.1587 1780.66 12.86 1780.46 12.6378L1779.61 13.3943Z" fill="#E1A3A0"/>
<path d="M1777.68 1.77611L1788.83 -8.18594C1789.29 -8.60266 1789.34 -9.31984 1788.92 -9.78629C1788.5 -10.2543 1787.78 -10.2931 1787.32 -9.87641L1776.17 0.0856381C1775.7 0.502355 1775.66 1.21801 1776.08 1.68602C1776.49 2.15246 1777.21 2.19282 1777.68 1.77611Z" fill="#E1A3A0"/>
<path d="M1775.27 35.0105L1803.96 9.3796C1804.43 8.96288 1804.47 8.24571 1804.05 7.77927C1803.63 7.31127 1802.92 7.27243 1802.45 7.68915L1773.76 33.32C1773.29 33.7367 1773.25 34.4524 1773.67 34.9204C1774.09 35.3869 1774.8 35.4272 1775.27 35.0105Z" fill="#E1A3A0"/>
<path d="M1780.26 40.5886L1808.95 14.9577C1809.41 14.541 1809.45 13.8238 1809.04 13.3574C1808.62 12.8909 1807.9 12.8505 1807.43 13.2673L1778.75 38.8981C1778.28 39.3149 1778.24 40.0321 1778.66 40.4985C1779.07 40.965 1779.79 41.0053 1780.26 40.5886Z" fill="#E1A3A0"/>
<path d="M1785.24 46.1667L1813.93 20.5358C1814.39 20.1191 1814.43 19.4019 1814.02 18.9355C1813.6 18.4675 1812.88 18.4287 1812.42 18.8454L1783.73 44.4763C1783.26 44.893 1783.22 45.6086 1783.64 46.0766C1784.05 46.5431 1784.77 46.5834 1785.24 46.1667Z" fill="#E1A3A0"/>
<g clip-path="url(#clip1_3342_716)">
<path d="M1649.75 300.346C1650.87 301.049 1652.49 301.479 1653.56 300.822L1656.22 299.198C1657.28 298.549 1657.63 296.916 1657.51 295.602C1657.51 295.464 1657.5 295.326 1657.47 295.19L1657.38 294.798L1649.07 299.884L1649.75 300.346Z" fill="#E8B9B7"/>
<path d="M1641.53 292.776L1643.04 295.25L1656.03 287.301L1654.52 284.827L1641.53 292.776Z" fill="#E8B9B7"/>
<path d="M1644.89 298.266C1645.05 298.601 1645.33 298.865 1645.68 299.007C1646.02 299.149 1646.41 299.159 1646.76 299.035L1657.72 292.272C1657.99 292.019 1658.16 291.672 1658.2 291.299C1658.23 290.926 1658.12 290.555 1657.89 290.258L1657.23 289.172L1644.22 297.18L1644.89 298.266Z" fill="#E8B9B7"/>
<path d="M1621.97 246.224C1617.51 249.006 1614.33 253.445 1613.13 258.567C1611.94 263.689 1612.82 269.077 1615.59 273.549C1618.15 277.751 1622 281.01 1626.57 282.837C1631.65 284.617 1634.93 285.942 1637.66 290.383L1637.9 290.781C1637.99 290.918 1638.09 291.036 1638.22 291.131C1638.35 291.225 1638.5 291.292 1638.65 291.33C1638.81 291.367 1638.97 291.373 1639.12 291.348C1639.28 291.322 1639.43 291.266 1639.57 291.182L1640.24 290.778L1641.83 289.804L1646.77 286.785L1651.69 283.773L1653.28 282.799L1653.96 282.376C1654.09 282.294 1654.21 282.185 1654.31 282.057C1654.4 281.929 1654.47 281.783 1654.51 281.628C1654.54 281.474 1654.55 281.313 1654.52 281.156C1654.5 280.999 1654.44 280.848 1654.36 280.713L1654.11 280.315C1651.4 275.866 1651.71 272.361 1652.44 267.004C1652.89 262.103 1651.74 257.19 1649.16 252.997C1646.45 248.503 1642.06 245.267 1636.96 243.998C1631.87 242.728 1626.48 243.529 1621.97 246.224ZM1650.08 266.661C1649.3 272.336 1649.01 276.166 1651.7 280.928L1646.55 284.08L1638 270.038L1642.07 267.551C1642.25 267.352 1642.37 267.096 1642.39 266.824C1642.42 266.552 1642.35 266.28 1642.2 266.051C1642.05 265.822 1641.83 265.649 1641.57 265.561C1641.32 265.473 1641.04 265.473 1640.78 265.563L1630.63 271.771C1630.5 271.854 1630.38 271.962 1630.28 272.091C1630.19 272.219 1630.12 272.365 1630.08 272.52C1630.05 272.675 1630.04 272.835 1630.06 272.993C1630.09 273.15 1630.14 273.301 1630.23 273.437C1630.31 273.573 1630.42 273.692 1630.55 273.786C1630.67 273.88 1630.82 273.948 1630.97 273.985C1631.13 274.023 1631.29 274.03 1631.45 274.006C1631.61 273.981 1631.76 273.926 1631.89 273.843L1635.88 271.337L1644.44 285.33L1639.74 288.219L1639.3 288.484C1636.29 283.922 1632.75 282.432 1627.34 280.543C1623.31 278.898 1619.91 276 1617.65 272.277C1616.4 270.341 1615.55 268.174 1615.15 265.904C1614.75 263.634 1614.8 261.306 1615.31 259.058C1615.83 256.81 1616.78 254.687 1618.13 252.814C1619.47 250.941 1621.18 249.357 1623.14 248.153C1625.11 246.95 1627.3 246.152 1629.58 245.807C1631.86 245.462 1634.18 245.577 1636.42 246.145C1638.65 246.712 1640.75 247.721 1642.59 249.112C1644.43 250.503 1645.97 252.248 1647.12 254.244C1649.42 257.955 1650.46 262.311 1650.08 266.661Z" fill="#E8B9B7"/>
<path d="M1620.69 243.063C1620.96 242.892 1621.16 242.621 1621.23 242.309C1621.31 241.996 1621.26 241.667 1621.09 241.391L1617.17 234.973C1616.98 234.725 1616.72 234.553 1616.42 234.493C1616.12 234.433 1615.8 234.489 1615.54 234.649C1615.28 234.809 1615.09 235.062 1615 235.358C1614.92 235.653 1614.95 235.969 1615.09 236.243L1619.02 242.66C1619.19 242.933 1619.46 243.127 1619.77 243.203C1620.08 243.278 1620.41 243.228 1620.69 243.063Z" fill="#E8B9B7"/>
<path d="M1611.38 251.195C1611.56 251.295 1611.77 251.344 1611.99 251.338C1612.2 251.331 1612.41 251.269 1612.59 251.158C1612.76 251.043 1612.9 250.885 1613 250.701C1613.09 250.516 1613.14 250.31 1613.13 250.103C1613.12 249.895 1613.07 249.693 1612.96 249.514C1612.85 249.336 1612.7 249.188 1612.52 249.085L1605.93 245.441C1605.74 245.341 1605.53 245.293 1605.31 245.303C1605.1 245.313 1604.89 245.38 1604.71 245.497C1604.53 245.609 1604.38 245.764 1604.28 245.947C1604.12 246.23 1604.09 246.561 1604.18 246.87C1604.27 247.18 1604.48 247.441 1604.76 247.597L1611.38 251.195Z" fill="#E8B9B7"/>
<path d="M1601.5 262.604L1609.02 262.408C1609.23 262.407 1609.44 262.348 1609.62 262.235C1609.8 262.121 1609.95 261.964 1610.05 261.777C1610.15 261.591 1610.2 261.382 1610.2 261.17C1610.2 261.01 1610.17 260.853 1610.1 260.706C1610.04 260.56 1609.94 260.428 1609.83 260.32C1609.72 260.206 1609.58 260.116 1609.43 260.056C1609.28 259.996 1609.13 259.966 1608.97 259.968L1601.43 260.211C1601.22 260.22 1601.01 260.283 1600.83 260.395C1600.61 260.539 1600.45 260.749 1600.36 260.993C1600.27 261.238 1600.27 261.504 1600.34 261.753C1600.42 262.002 1600.57 262.22 1600.78 262.375C1600.99 262.53 1601.24 262.614 1601.5 262.614L1601.5 262.604Z" fill="#E8B9B7"/>
<path d="M1611.32 271.227L1604.91 275.154C1604.65 275.327 1604.46 275.595 1604.39 275.9C1604.33 276.206 1604.38 276.526 1604.54 276.793C1604.71 277.06 1604.97 277.253 1605.27 277.332C1605.57 277.411 1605.9 277.37 1606.17 277.217L1612.59 273.29C1612.85 273.116 1613.03 272.849 1613.1 272.543C1613.17 272.237 1613.11 271.917 1612.95 271.65C1612.79 271.383 1612.52 271.19 1612.22 271.111C1611.92 271.032 1611.6 271.074 1611.32 271.227Z" fill="#E8B9B7"/>
<path d="M1656.08 245.161L1649.66 249.088C1649.39 249.257 1649.19 249.527 1649.12 249.84C1649.04 250.153 1649.1 250.483 1649.27 250.756C1649.43 251.03 1649.7 251.226 1650.02 251.3C1650.33 251.375 1650.66 251.322 1650.93 251.153L1657.34 247.224C1657.6 247.051 1657.79 246.783 1657.85 246.477C1657.92 246.172 1657.87 245.852 1657.7 245.585C1657.54 245.317 1657.28 245.124 1656.98 245.045C1656.67 244.966 1656.35 245.008 1656.08 245.161Z" fill="#E8B9B7"/>
<path d="M1646.95 235.065C1646.91 234.911 1646.83 234.768 1646.73 234.645C1646.63 234.522 1646.5 234.42 1646.36 234.347C1646.18 234.244 1645.97 234.192 1645.75 234.197C1645.54 234.202 1645.33 234.263 1645.15 234.375C1644.97 234.484 1644.82 234.641 1644.72 234.827L1641.13 241.439C1641.01 241.67 1640.97 241.933 1641.01 242.19C1641.05 242.446 1641.18 242.682 1641.37 242.862C1641.55 243.042 1641.79 243.157 1642.05 243.19C1642.31 243.223 1642.57 243.172 1642.8 243.044C1642.98 242.932 1643.13 242.778 1643.23 242.594L1646.82 235.98C1646.9 235.844 1646.96 235.693 1646.98 235.535C1647 235.378 1646.99 235.218 1646.95 235.065Z" fill="#E8B9B7"/>
<path d="M1631.15 240.269C1631.36 240.26 1631.57 240.196 1631.75 240.084C1631.93 239.975 1632.09 239.819 1632.19 239.632C1632.29 239.445 1632.34 239.235 1632.34 239.021L1632.1 231.488C1632.1 231.33 1632.07 231.174 1632 231.029C1631.94 230.885 1631.85 230.755 1631.73 230.647C1631.62 230.535 1631.48 230.447 1631.33 230.388C1631.18 230.329 1631.03 230.301 1630.87 230.305C1630.65 230.313 1630.44 230.376 1630.26 230.487C1630.08 230.6 1629.93 230.757 1629.83 230.944C1629.73 231.13 1629.68 231.34 1629.68 231.552L1629.9 239.084C1629.92 239.405 1630.05 239.709 1630.29 239.931C1630.52 240.152 1630.83 240.273 1631.15 240.269Z" fill="#E8B9B7"/>
</g>
<g clip-path="url(#clip2_3342_716)">
<path d="M97.7325 49.0276C96.4466 49.36 94.7778 49.2852 93.9511 48.3361L91.9074 45.9902C91.09 45.0518 91.2446 43.3885 91.7495 42.1703C91.7932 42.0389 91.8489 41.9119 91.916 41.7908L92.1203 41.4441L98.5206 48.7912L97.7325 49.0276Z" fill="#E8B9B7"/>
<path d="M107.847 44.2748L105.661 46.1797L95.6568 34.696L97.8435 32.7911L107.847 44.2748Z" fill="#E8B9B7"/>
<path d="M102.991 48.5025C102.735 48.7737 102.388 48.9411 102.016 48.9728C101.644 49.0045 101.273 48.8982 100.975 48.6743L92.5541 38.9327C92.3675 38.6084 92.3089 38.2261 92.3897 37.8607C92.4705 37.4954 92.6849 37.1734 92.9908 36.9581L93.9506 36.122L103.951 47.6664L102.991 48.5025Z" fill="#E8B9B7"/>
<path d="M140.479 5.7466C143.902 9.74098 145.601 14.9295 145.204 20.1746C144.807 25.4197 142.346 30.2934 138.362 33.7272C134.658 36.9667 130.005 38.9182 125.098 39.2891C119.714 39.4595 116.186 39.7378 112.252 43.1556L111.9 43.4621C111.781 43.5676 111.642 43.6483 111.492 43.6995C111.341 43.7507 111.182 43.7715 111.023 43.7605C110.864 43.7496 110.709 43.7072 110.567 43.6358C110.425 43.5644 110.298 43.4654 110.194 43.3446L109.674 42.7575L108.447 41.3499L104.648 36.9885L100.858 32.6378L99.6318 31.2303L99.1123 30.6231C99.0068 30.504 98.9261 30.365 98.8749 30.2143C98.8237 30.0637 98.8029 29.9043 98.8139 29.7456C98.8248 29.5868 98.8672 29.4318 98.9386 29.2896C99.01 29.1474 99.109 29.0208 99.2298 28.9172L99.5817 28.6106C103.506 25.1822 104.264 21.7462 105.173 16.416C106.221 11.6079 108.795 7.2673 112.51 4.04088C116.451 0.569801 121.605 -1.19941 126.847 -0.879757C132.088 -0.5601 136.99 1.82241 140.479 5.7466ZM107.532 16.799C106.572 22.4463 105.693 26.1848 101.697 29.9191L105.663 34.4723L118.036 23.6469L114.906 20.0533C114.787 19.8074 114.755 19.5289 114.813 19.2622C114.872 18.9956 115.018 18.7563 115.228 18.5826C115.439 18.4089 115.702 18.3108 115.975 18.304C116.248 18.2973 116.515 18.3822 116.734 18.5453L124.546 27.5133C124.651 27.6331 124.731 27.7724 124.782 27.9232C124.834 28.074 124.855 28.2334 124.844 28.3923C124.834 28.5512 124.792 28.7065 124.721 28.8493C124.651 28.9921 124.553 29.1196 124.433 29.2246C124.313 29.3295 124.174 29.4099 124.023 29.461C123.873 29.5121 123.713 29.5331 123.554 29.5226C123.395 29.5121 123.24 29.4704 123.097 29.3999C122.954 29.3294 122.827 29.2315 122.722 29.1117L119.671 25.5237L107.302 36.2992L110.924 40.468L111.258 40.8518C115.505 37.4055 119.329 37.0474 125.054 36.8703C129.393 36.5112 133.502 34.7665 136.774 31.8938C138.55 30.4233 140.013 28.6123 141.078 26.5675C142.143 24.5226 142.788 22.2854 142.975 19.9875C143.162 17.6895 142.888 15.3774 142.168 13.1872C141.447 10.9971 140.296 8.97318 138.782 7.23476C137.267 5.49634 135.42 4.07855 133.35 3.06489C131.279 2.05124 129.026 1.46222 126.724 1.33252C124.422 1.20283 122.118 1.53508 119.946 2.30972C117.775 3.08435 115.78 4.2857 114.08 5.843C110.771 8.69128 108.473 12.5352 107.532 16.799Z" fill="#E8B9B7"/>
<path d="M142.654 3.11517C142.445 2.87044 142.341 2.55383 142.363 2.23311C142.385 1.9124 142.532 1.61308 142.772 1.39924L148.445 -3.54266C148.691 -3.72547 148.998 -3.8086 149.303 -3.77548C149.608 -3.74236 149.89 -3.59541 150.091 -3.36396C150.293 -3.13251 150.4 -2.83355 150.391 -2.52672C150.382 -2.2199 150.257 -1.92775 150.042 -1.70855L144.37 3.23335C144.125 3.4418 143.808 3.54615 143.487 3.52406C143.167 3.50197 142.867 3.3552 142.654 3.11517Z" fill="#E8B9B7"/>
<path d="M149.094 13.6732C148.885 13.7123 148.669 13.6959 148.468 13.6258C148.268 13.5557 148.088 13.4343 147.949 13.2736C147.819 13.1119 147.732 12.9196 147.696 12.7149C147.661 12.5102 147.678 12.2999 147.747 12.1038C147.816 11.9078 147.933 11.7325 148.089 11.5947C148.244 11.4568 148.432 11.3609 148.635 11.3161L156.015 9.81966C156.226 9.78111 156.443 9.79969 156.645 9.87348C156.846 9.94726 157.023 10.0736 157.159 10.2392C157.298 10.4003 157.395 10.5928 157.441 10.8C157.501 11.1154 157.436 11.4418 157.258 11.7095C157.077 11.9769 156.798 12.1627 156.481 12.2273L149.094 13.6732Z" fill="#E8B9B7"/>
<path d="M155.087 27.5178L147.978 25.0736C147.774 25.0089 147.591 24.8888 147.451 24.7265C147.314 24.5645 147.222 24.3702 147.182 24.1621C147.141 23.954 147.155 23.7392 147.222 23.538C147.27 23.386 147.35 23.2455 147.454 23.1251C147.559 23.0048 147.688 22.9071 147.831 22.8382C147.973 22.7638 148.128 22.7187 148.287 22.7056C148.447 22.6925 148.607 22.7116 148.759 22.7618L155.874 25.2566C156.074 25.3291 156.252 25.4518 156.391 25.6129C156.555 25.815 156.649 26.0645 156.659 26.3242C156.67 26.584 156.597 26.8402 156.45 27.0551C156.304 27.2699 156.092 27.4319 155.846 27.5171C155.601 27.6022 155.334 27.606 155.086 27.5278L155.087 27.5178Z" fill="#E8B9B7"/>
<path d="M143.126 32.8001L148.068 38.4731C148.265 38.7167 148.359 39.027 148.332 39.3389C148.305 39.6507 148.157 39.9399 147.921 40.1455C147.685 40.3512 147.379 40.4573 147.066 40.4416C146.753 40.426 146.459 40.2897 146.245 40.0615L141.303 34.3886C141.106 34.145 141.011 33.8346 141.039 33.5228C141.066 33.2109 141.213 32.9218 141.449 32.7161C141.685 32.5105 141.992 32.4043 142.305 32.42C142.617 32.4357 142.912 32.5719 143.126 32.8001Z" fill="#E8B9B7"/>
<path d="M108.266 -5.50999L113.208 0.16296C113.418 0.406088 113.524 0.722899 113.501 1.0437C113.478 1.3645 113.328 1.66301 113.085 1.87356C112.842 2.08412 112.525 2.18946 112.204 2.16643C111.883 2.1434 111.585 1.99387 111.374 1.75074L106.442 -3.92153C106.246 -4.16512 106.151 -4.47546 106.178 -4.78733C106.206 -5.09921 106.353 -5.38834 106.589 -5.59399C106.825 -5.79963 107.132 -5.90577 107.444 -5.89011C107.757 -5.87444 108.051 -5.7382 108.266 -5.50999Z" fill="#E8B9B7"/>
</g>
</g><script xmlns=""/>
<defs>
<clipPath id="clip0_3342_716">
<rect width="1920" height="300" fill="white"/>
</clipPath>
<clipPath id="clip1_3342_716">
<rect width="64.0002" height="64" fill="white" transform="translate(1594 287.219) rotate(-76.4625)"/>
</clipPath>
<clipPath id="clip2_3342_716">
<rect width="64.0002" height="64" fill="white" transform="matrix(0.0687082 -0.997637 -0.997637 -0.0687082 154.849 53.25)"/>
</clipPath>
</defs>
</svg>