<svg width="36" height="36" viewBox="0 0 36 36" fill="none" xmlns="http://www.w3.org/2000/svg">
<rect width="36" height="36" rx="18" fill="#F7E4E4"/>
<g clip-path="url(#clip0_3238_4963)">
<path d="M16.9998 9.57788C16.8009 9.57788 16.6102 9.49886 16.4695 9.35821C16.3289 9.21756 16.2498 9.02679 16.2498 8.82788C16.2498 8.62897 16.3289 8.4382 16.4695 8.29755C16.6102 8.1569 16.8009 8.07788 16.9998 8.07788H20.5358C20.7348 8.07788 20.9255 8.1569 21.0662 8.29755C21.2068 8.4382 21.2858 8.62897 21.2858 8.82788C21.2858 9.02679 21.2068 9.21756 21.0662 9.35821C20.9255 9.49886 20.7348 9.57788 20.5358 9.57788H16.9998ZM13.5298 10.0299C13.6703 10.1705 13.7492 10.3611 13.7492 10.5599C13.7492 10.7586 13.6703 10.9493 13.5298 11.0899L11.0298 13.5899C10.8877 13.7224 10.6996 13.7945 10.5053 13.7911C10.311 13.7876 10.1256 13.7089 9.98822 13.5715C9.85081 13.4341 9.7721 13.2487 9.76867 13.0544C9.76524 12.8601 9.83737 12.6721 9.96985 12.5299L12.4698 10.0299C12.6105 9.88943 12.8011 9.81054 12.9998 9.81054C13.1986 9.81054 13.3892 9.88943 13.5298 10.0299Z" fill="#D37874"/>
<path fill-rule="evenodd" clip-rule="evenodd" d="M19 11.0586C16.7457 11.0586 14.5837 11.9541 12.9896 13.5482C11.3955 15.1422 10.5 17.3043 10.5 19.5586C10.5 21.8129 11.3955 23.9749 12.9896 25.569C14.5837 27.1631 16.7457 28.0586 19 28.0586C21.2543 28.0586 23.4163 27.1631 25.0104 25.569C26.6045 23.9749 27.5 21.8129 27.5 19.5586C27.5 17.3043 26.6045 15.1422 25.0104 13.5482C23.4163 11.9541 21.2543 11.0586 19 11.0586ZM23.99 14.7696C24.063 14.6734 24.0988 14.554 24.0906 14.4335C24.0824 14.3129 24.0309 14.1995 23.9456 14.114C23.8602 14.0285 23.7468 13.9768 23.6263 13.9685C23.5058 13.9601 23.3863 13.9957 23.29 14.0686L20.115 16.5366L18.04 18.0196C17.8703 18.1405 17.7289 18.297 17.6259 18.4781C17.5228 18.6592 17.4604 18.8607 17.4431 19.0683C17.4258 19.276 17.4539 19.485 17.5256 19.6807C17.5973 19.8764 17.7108 20.0541 17.8581 20.2014C18.0055 20.3488 18.1832 20.4623 18.3789 20.534C18.5746 20.6056 18.7836 20.6338 18.9912 20.6165C19.1989 20.5992 19.4003 20.5368 19.5815 20.4337C19.7626 20.3306 19.9191 20.1893 20.04 20.0196L21.522 17.9436L23.99 14.7696Z" fill="#D37874"/>
</g>
<defs>
<clipPath id="clip0_3238_4963">
<rect width="19" height="21" fill="white" transform="translate(9 8)"/>
</clipPath>
</defs>
</svg>
